<?xml version="1.0" standalone="no"?>
<!DOCTYPE svg PUBLIC "-//W3C//DTD SVG 20010904//EN"
 "http://www.w3.org/TR/2001/REC-SVG-20010904/DTD/svg10.dtd">
<svg version="1.0" xmlns="http://www.w3.org/2000/svg"
 width="260.000000pt" height="260.000000pt" viewBox="0 0 260.000000 260.000000"
 preserveAspectRatio="xMidYMid meet">
<metadata>
Created by potrace 1.11, written by Peter Selinger 2001-2013
</metadata>
<g transform="translate(0.000000,260.000000) scale(0.100000,-0.100000)"
fill="#000000" stroke="none">
<path d="M0 1300 l0 -1300 1300 0 1300 0 0 1300 0 1300 -1300 0 -1300 0 0
-1300z m1507 464 c72 -24 97 -47 131 -116 58 -118 64 -222 18 -290 -45 -68
-179 -126 -387 -168 l-106 -22 -5 -82 c-4 -53 -13 -100 -28 -134 -19 -43 -27
-52 -54 -57 -89 -15 -101 -11 -130 44 l-25 49 21 98 c20 95 20 98 3 131 -27
50 -22 125 13 192 16 32 40 62 55 69 18 9 30 28 42 67 34 107 118 198 209 224
53 16 191 13 243 -5z"/>
<path d="M1274 1524 c-18 -9 -35 -28 -42 -48 -19 -52 -16 -58 26 -51 50 9 221
65 227 75 9 14 -74 40 -128 40 -28 0 -66 -7 -83 -16z"/>
</g>
</svg>
